<svg width="206" height="94" viewBox="0 0 206 94" fill="none" xmlns="http://www.w3.org/2000/svg">
<path d="M63.1491 19.4704L48.6036 4.855C48.3333 4.58364 48.0124 4.36846 47.6592 4.22176C47.3061 4.07505 46.9276 3.9997 46.5455 4H17.4545C15.9115 4 14.4316 4.61593 13.3405 5.7123C12.2494 6.80867 11.6364 8.29566 11.6364 9.84615V15.6923H5.81818C4.2751 15.6923 2.79523 16.3082 1.70411 17.4046C0.612985 18.501 0 19.988 0 21.5385V74.1538C0 75.7043 0.612985 77.1913 1.70411 78.2877C2.79523 79.3841 4.2751 80 5.81818 80H46.5455C48.0885 80 49.5684 79.3841 50.6595 78.2877C51.7507 77.1913 52.3636 75.7043 52.3636 74.1538V68.3077H58.1818C59.7249 68.3077 61.2048 67.6918 62.2959 66.5954C63.387 65.499 64 64.012 64 62.4615V21.5385C64.0003 21.1545 63.9253 20.7742 63.7793 20.4194C63.6333 20.0645 63.4192 19.742 63.1491 19.4704ZM34.9091 65.3846H17.4545C16.683 65.3846 15.9431 65.0767 15.3975 64.5285C14.8519 63.9803 14.5455 63.2368 14.5455 62.4615C14.5455 61.6863 14.8519 60.9428 15.3975 60.3946C15.9431 59.8464 16.683 59.5385 17.4545 59.5385H34.9091C35.6806 59.5385 36.4206 59.8464 36.9661 60.3946C37.5117 60.9428 37.8182 61.6863 37.8182 62.4615C37.8182 63.2368 37.5117 63.9803 36.9661 64.5285C36.4206 65.0767 35.6806 65.3846 34.9091 65.3846ZM34.9091 53.6923H17.4545C16.683 53.6923 15.9431 53.3843 15.3975 52.8362C14.8519 52.288 14.5455 51.5445 14.5455 50.7692C14.5455 49.994 14.8519 49.2505 15.3975 48.7023C15.9431 48.1541 16.683 47.8462 17.4545 47.8462H34.9091C35.6806 47.8462 36.4206 48.1541 36.9661 48.7023C37.5117 49.2505 37.8182 49.994 37.8182 50.7692C37.8182 51.5445 37.5117 52.288 36.9661 52.8362C36.4206 53.3843 35.6806 53.6923 34.9091 53.6923ZM58.1818 62.4615H52.3636V33.2308C52.3639 32.8468 52.2889 32.4665 52.1429 32.1117C51.9969 31.7568 51.7828 31.4344 51.5127 31.1627L36.9673 16.5473C36.6969 16.2759 36.376 16.0608 36.0228 15.9141C35.6697 15.7674 35.2912 15.692 34.9091 15.6923H17.4545V9.84615H45.3418L58.1818 22.7479V62.4615Z" fill="#1B814C"/>
<path d="M97.1875 25.0195C97.373 25.0195 97.5153 25.0876 97.6143 25.2236C97.7132 25.3597 97.7998 25.4958 97.874 25.6318C97.9482 25.7803 98.1214 26.1452 98.3936 26.7266C98.6781 27.2956 98.9749 27.9264 99.2842 28.6191C99.6058 29.2995 99.8841 29.9056 100.119 30.4375C100.354 30.9694 100.472 31.2725 100.472 31.3467C100.472 31.4333 100.435 31.5199 100.36 31.6064C100.299 31.6807 100.237 31.7425 100.175 31.792C99.4945 32.3363 98.6719 32.7939 97.707 33.165C96.7422 33.5238 95.7464 33.7959 94.7197 33.9814C93.7054 34.167 92.7653 34.2598 91.8994 34.2598C89.1533 34.2598 86.7721 33.734 84.7559 32.6826C82.7396 31.6188 81.181 30.0973 80.0801 28.1182C78.9792 26.1266 78.4287 23.7454 78.4287 20.9746C78.4287 18.3893 78.9049 16.1442 79.8574 14.2393C80.8099 12.3343 82.2015 10.8623 84.0322 9.82324C85.8753 8.77181 88.1081 8.24609 90.7305 8.24609C91.5592 8.24609 92.487 8.3265 93.5137 8.4873C94.5527 8.64811 95.5671 8.88314 96.5566 9.19238C97.5586 9.50163 98.4059 9.88509 99.0986 10.3428C99.346 10.5036 99.4697 10.6953 99.4697 10.918C99.4697 10.9674 99.3955 11.1901 99.2471 11.5859C99.0986 11.9694 98.9131 12.4395 98.6904 12.9961C98.4678 13.5527 98.2389 14.1217 98.0039 14.7031C97.7812 15.2721 97.5771 15.7731 97.3916 16.2061C97.2184 16.639 97.1009 16.9173 97.0391 17.041C96.9772 17.1771 96.903 17.307 96.8164 17.4307C96.7298 17.542 96.5999 17.5977 96.4268 17.5977C96.2907 17.5977 96.0186 17.4987 95.6104 17.3008C95.2145 17.1029 94.7383 16.9049 94.1816 16.707C93.6374 16.5091 93.0745 16.4102 92.4932 16.4102C91.5654 16.4102 90.681 16.5771 89.8398 16.9111C88.9987 17.2451 88.3122 17.7523 87.7803 18.4326C87.2607 19.1006 87.001 19.9541 87.001 20.9932C87.001 22.8363 87.5452 24.1413 88.6338 24.9082C89.7347 25.6751 91.1325 26.0586 92.8271 26.0586C93.458 26.0586 94.0889 25.9967 94.7197 25.873C95.363 25.737 95.9691 25.5267 96.5381 25.2422C96.6618 25.1803 96.7669 25.1309 96.8535 25.0938C96.9401 25.0443 97.0514 25.0195 97.1875 25.0195ZM103.273 21.29C103.273 19.484 103.614 17.7956 104.294 16.2246C104.987 14.6413 105.939 13.2497 107.151 12.0498C108.364 10.8499 109.761 9.90983 111.345 9.22949C112.94 8.54915 114.635 8.20898 116.429 8.20898C118.235 8.20898 119.942 8.55534 121.55 9.24805C123.158 9.92839 124.574 10.8747 125.799 12.0869C127.036 13.2868 128.007 14.6846 128.712 16.2803C129.417 17.876 129.77 19.583 129.77 21.4014C129.77 23.2321 129.423 24.9329 128.73 26.5039C128.038 28.0625 127.079 29.4232 125.854 30.5859C124.63 31.7487 123.214 32.6517 121.605 33.2949C120.01 33.9382 118.309 34.2598 116.503 34.2598C114.685 34.2598 112.971 33.932 111.363 33.2764C109.768 32.6208 108.364 31.7054 107.151 30.5303C105.939 29.3551 104.987 27.9821 104.294 26.4111C103.614 24.8402 103.273 23.1331 103.273 21.29ZM111.827 21.1416C111.827 22.5765 112.297 23.7578 113.237 24.6855C114.19 25.6009 115.377 26.0586 116.8 26.0586C118.198 26.0586 119.28 25.5947 120.047 24.667C120.826 23.7393 121.216 22.6136 121.216 21.29C121.216 19.9046 120.795 18.748 119.954 17.8203C119.113 16.8802 117.981 16.4102 116.559 16.4102C115.173 16.4102 114.035 16.8555 113.145 17.7461C112.266 18.6243 111.827 19.7562 111.827 21.1416ZM132.775 21.29C132.775 19.484 133.116 17.7956 133.796 16.2246C134.489 14.6413 135.441 13.2497 136.653 12.0498C137.866 10.8499 139.263 9.90983 140.847 9.22949C142.442 8.54915 144.137 8.20898 145.931 8.20898C147.737 8.20898 149.444 8.55534 151.052 9.24805C152.66 9.92839 154.076 10.8747 155.301 12.0869C156.538 13.2868 157.509 14.6846 158.214 16.2803C158.919 17.876 159.271 19.583 159.271 21.4014C159.271 23.2321 158.925 24.9329 158.232 26.5039C157.54 28.0625 156.581 29.4232 155.356 30.5859C154.132 31.7487 152.715 32.6517 151.107 33.2949C149.512 33.9382 147.811 34.2598 146.005 34.2598C144.187 34.2598 142.473 33.932 140.865 33.2764C139.27 32.6208 137.866 31.7054 136.653 30.5303C135.441 29.3551 134.489 27.9821 133.796 26.4111C133.116 24.8402 132.775 23.1331 132.775 21.29ZM141.329 21.1416C141.329 22.5765 141.799 23.7578 142.739 24.6855C143.692 25.6009 144.879 26.0586 146.302 26.0586C147.7 26.0586 148.782 25.5947 149.549 24.667C150.328 23.7393 150.718 22.6136 150.718 21.29C150.718 19.9046 150.297 18.748 149.456 17.8203C148.615 16.8802 147.483 16.4102 146.061 16.4102C144.675 16.4102 143.537 16.8555 142.646 17.7461C141.768 18.6243 141.329 19.7562 141.329 21.1416ZM162.76 9.28516C162.76 8.76562 163.007 8.50586 163.502 8.50586H170.46C170.93 8.50586 171.184 8.75944 171.221 9.2666C171.258 9.83561 171.264 10.417 171.239 11.0107C171.227 11.6045 171.221 12.1921 171.221 12.7734V25.5762C171.221 25.737 171.301 25.8174 171.462 25.8174H180.554C181.011 25.8174 181.259 26.0648 181.296 26.5596C181.333 26.9801 181.352 27.4069 181.352 27.8398C181.364 28.2604 181.376 28.6872 181.389 29.1201C181.413 29.8005 181.444 30.487 181.481 31.1797C181.531 31.86 181.556 32.5404 181.556 33.2207C181.556 33.7402 181.308 34 180.813 34H163.465C162.97 34 162.723 33.7402 162.723 33.2207C162.723 32.5404 162.741 31.8662 162.778 31.1982C162.828 30.5179 162.859 29.8376 162.871 29.1572C162.921 27.7347 162.958 26.3184 162.982 24.9082C163.007 23.498 163.02 22.0817 163.02 20.6592C163.02 18.0986 162.982 15.5381 162.908 12.9775C162.896 12.359 162.865 11.7406 162.815 11.1221C162.778 10.5036 162.76 9.89128 162.76 9.28516ZM78.9854 56.2852C78.9854 55.7656 79.2327 55.5059 79.7275 55.5059H97.6699C98.1647 55.5059 98.4121 55.7347 98.4121 56.1924C98.4121 57.3057 98.3812 58.4251 98.3193 59.5508C98.2699 60.6764 98.2266 61.7959 98.1895 62.9092C98.1771 63.4163 97.9297 63.6699 97.4473 63.6699H87.6689C87.5329 63.6699 87.4648 63.738 87.4648 63.874V65.4697C87.4648 65.6676 87.5638 65.7666 87.7617 65.7666H95.833C96.3278 65.7666 96.5752 66.0202 96.5752 66.5273C96.5752 67.5169 96.5814 68.5127 96.5938 69.5146C96.6061 70.5166 96.6123 71.5124 96.6123 72.502C96.6123 72.9967 96.3649 73.2441 95.8701 73.2441H87.6689C87.5329 73.2441 87.4648 73.3122 87.4648 73.4482C87.4648 74.5739 87.4648 75.7057 87.4648 76.8438C87.4648 77.9694 87.4525 79.1012 87.4277 80.2393C87.403 80.7464 87.1494 81 86.667 81H79.6719C79.1771 81 78.9297 80.7402 78.9297 80.2207C78.9297 79.5404 78.9482 78.8662 78.9854 78.1982C79.0348 77.5179 79.0719 76.8376 79.0967 76.1572C79.1462 74.7347 79.1833 73.3184 79.208 71.9082C79.2327 70.498 79.2451 69.0817 79.2451 67.6592C79.2451 66.3727 79.2266 65.0863 79.1895 63.7998C79.1647 62.5133 79.1338 61.2331 79.0967 59.959C79.0843 59.3405 79.0596 58.7282 79.0225 58.1221C78.9977 57.5036 78.9854 56.8913 78.9854 56.2852ZM100.898 68.29C100.898 66.484 101.239 64.7956 101.919 63.2246C102.612 61.6413 103.564 60.2497 104.776 59.0498C105.989 57.8499 107.386 56.9098 108.97 56.2295C110.565 55.5492 112.26 55.209 114.054 55.209C115.86 55.209 117.567 55.5553 119.175 56.248C120.783 56.9284 122.199 57.8747 123.424 59.0869C124.661 60.2868 125.632 61.6846 126.337 63.2803C127.042 64.876 127.395 66.583 127.395 68.4014C127.395 70.2321 127.048 71.9329 126.355 73.5039C125.663 75.0625 124.704 76.4232 123.479 77.5859C122.255 78.7487 120.839 79.6517 119.23 80.2949C117.635 80.9382 115.934 81.2598 114.128 81.2598C112.31 81.2598 110.596 80.932 108.988 80.2764C107.393 79.6208 105.989 78.7054 104.776 77.5303C103.564 76.3551 102.612 74.9821 101.919 73.4111C101.239 71.8402 100.898 70.1331 100.898 68.29ZM109.452 68.1416C109.452 69.5765 109.922 70.7578 110.862 71.6855C111.815 72.6009 113.002 73.0586 114.425 73.0586C115.823 73.0586 116.905 72.5947 117.672 71.667C118.451 70.7393 118.841 69.6136 118.841 68.29C118.841 66.9046 118.42 65.748 117.579 64.8203C116.738 63.8802 115.606 63.4102 114.184 63.4102C112.798 63.4102 111.66 63.8555 110.77 64.7461C109.891 65.6243 109.452 66.7562 109.452 68.1416ZM140.717 55.5059C142.312 55.5059 143.815 55.6605 145.226 55.9697C146.648 56.2666 147.904 56.7738 148.992 57.4912C150.093 58.1963 150.953 59.1549 151.571 60.3672C152.202 61.5794 152.518 63.0947 152.518 64.9131V65.0615C152.505 66.5459 152.239 67.9561 151.72 69.292C151.2 70.6156 150.334 71.7474 149.122 72.6875C148.887 72.873 148.646 73.0339 148.398 73.1699C148.151 73.306 147.904 73.4544 147.656 73.6152C147.632 73.6276 147.594 73.6585 147.545 73.708L147.526 73.7637C147.526 73.8255 147.687 74.0482 148.009 74.4316C148.343 74.8151 148.757 75.279 149.252 75.8232C149.759 76.3551 150.272 76.8994 150.792 77.4561C151.312 78.0003 151.769 78.4827 152.165 78.9033C152.573 79.3115 152.839 79.5837 152.963 79.7197C153.062 79.8311 153.173 79.9548 153.297 80.0908C153.421 80.2269 153.482 80.3815 153.482 80.5547C153.482 80.7773 153.346 80.9072 153.074 80.9443C152.802 80.9814 152.592 81 152.443 81H144.632C144.409 81 144.205 80.8949 144.02 80.6846C143.896 80.5485 143.679 80.2578 143.37 79.8125C143.073 79.3548 142.727 78.8353 142.331 78.2539C141.948 77.6725 141.57 77.1035 141.199 76.5469C140.828 75.9902 140.507 75.5326 140.234 75.1738C139.962 74.8027 139.795 74.6172 139.733 74.6172C139.548 74.6172 139.443 74.6914 139.418 74.8398C139.393 75.0625 139.381 75.2975 139.381 75.5449C139.381 75.7799 139.381 76.0088 139.381 76.2314C139.381 76.8994 139.387 77.5736 139.399 78.2539C139.424 78.9219 139.406 79.5837 139.344 80.2393C139.319 80.499 139.257 80.6908 139.158 80.8145C139.059 80.9382 138.868 81 138.583 81H131.588C131.093 81 130.846 80.7402 130.846 80.2207C130.846 79.5527 130.87 78.8786 130.92 78.1982C130.969 77.5179 131.007 76.8438 131.031 76.1758C131.093 74.778 131.136 73.3802 131.161 71.9824C131.198 70.5723 131.217 69.1621 131.217 67.752C131.217 66.4655 131.204 65.1729 131.18 63.874C131.155 62.5752 131.118 61.2826 131.068 59.9961C131.056 59.3776 131.025 58.7591 130.976 58.1406C130.938 57.5098 130.92 56.8913 130.92 56.2852C130.92 55.7656 131.167 55.5059 131.662 55.5059H140.717ZM141.589 68.1973C142.269 68.1973 142.776 68.0426 143.11 67.7334C143.444 67.4118 143.667 66.9974 143.778 66.4902C143.89 65.9831 143.945 65.4512 143.945 64.8945C143.945 64.1029 143.754 63.4906 143.37 63.0576C142.999 62.6247 142.405 62.4082 141.589 62.4082H139.418C139.418 63.373 139.418 64.3379 139.418 65.3027C139.43 66.2676 139.437 67.2324 139.437 68.1973H141.589ZM157.435 81C156.94 81 156.692 80.734 156.692 80.2021C156.692 79.5465 156.723 78.891 156.785 78.2354C156.859 77.5674 156.909 76.9118 156.934 76.2686C156.995 74.8337 157.045 73.3926 157.082 71.9453C157.119 70.498 157.138 69.057 157.138 67.6221C157.138 65.7913 157.088 63.9668 156.989 62.1484C156.89 60.3301 156.822 58.5117 156.785 56.6934V56.3037C156.785 56.18 156.804 56.0192 156.841 55.8213C156.878 55.6234 156.983 55.5244 157.156 55.5244C157.317 55.5244 157.484 55.6048 157.657 55.7656C157.843 55.9264 157.985 56.0563 158.084 56.1553C159.531 57.5902 160.935 59.0745 162.296 60.6084C163.657 62.1299 165.011 63.6576 166.359 65.1914C167.003 65.9089 167.64 66.6449 168.271 67.3994C168.914 68.154 169.576 68.8714 170.256 69.5518C170.281 69.5765 170.318 69.6012 170.367 69.626H170.571C170.571 69.626 170.843 69.3415 171.388 68.7725C171.944 68.1911 172.662 67.4365 173.54 66.5088C174.418 65.5811 175.371 64.5791 176.397 63.5029C177.424 62.4268 178.426 61.3753 179.403 60.3486C180.393 59.3219 181.259 58.4251 182.001 57.6582C182.756 56.8913 183.287 56.3594 183.597 56.0625C183.72 55.9388 183.844 55.8275 183.968 55.7285C184.091 55.6296 184.234 55.5553 184.395 55.5059C184.419 55.5059 184.438 55.5059 184.45 55.5059C184.475 55.4935 184.493 55.4873 184.506 55.4873C184.716 55.4873 184.827 55.6048 184.84 55.8398C184.865 56.0749 184.877 56.2666 184.877 56.415V56.6377C184.84 58.32 184.772 60.0023 184.673 61.6846C184.586 63.3669 184.543 65.0553 184.543 66.75C184.543 68.2591 184.555 69.7744 184.58 71.2959C184.617 72.8174 184.673 74.3327 184.747 75.8418C184.784 76.584 184.834 77.3324 184.896 78.0869C184.97 78.8291 185.007 79.5713 185.007 80.3135C185.007 80.7712 184.766 81 184.283 81H177.251C176.744 81 176.484 80.7526 176.472 80.2578C176.472 80.1465 176.465 79.9176 176.453 79.5713C176.453 79.2249 176.447 78.8477 176.435 78.4395C176.435 78.0189 176.428 77.6478 176.416 77.3262C176.404 77.0046 176.385 76.819 176.36 76.7695L176.286 76.7324C176.237 76.7324 176.057 76.8932 175.748 77.2148C175.439 77.5241 175.055 77.9199 174.598 78.4023C174.152 78.8848 173.695 79.3796 173.225 79.8867C172.767 80.3939 172.359 80.8392 172 81.2227C171.641 81.6061 171.406 81.8535 171.295 81.9648C171.221 82.0391 171.14 82.1071 171.054 82.1689C170.967 82.2308 170.868 82.2617 170.757 82.2617C170.646 82.2617 170.547 82.2308 170.46 82.1689C170.386 82.1195 170.305 82.0576 170.219 81.9834C170.095 81.8721 169.848 81.637 169.477 81.2783C169.118 80.9196 168.697 80.5052 168.215 80.0352C167.745 79.5527 167.281 79.0889 166.823 78.6436C166.366 78.1859 165.97 77.8086 165.636 77.5117C165.314 77.2148 165.129 77.0664 165.079 77.0664C165.042 77.0664 165.017 77.1097 165.005 77.1963C164.993 77.2705 164.986 77.32 164.986 77.3447L164.912 80.2578C164.9 80.7526 164.64 81 164.133 81H157.435ZM197.661 55.376C197.896 55.376 198.298 55.3945 198.867 55.4316C199.449 55.4564 200.061 55.5182 200.704 55.6172C201.36 55.7038 201.916 55.846 202.374 56.0439C202.844 56.2295 203.079 56.4831 203.079 56.8047C203.079 56.9655 203.03 57.3057 202.931 57.8252C202.832 58.3447 202.708 58.9261 202.56 59.5693C202.424 60.2126 202.294 60.8125 202.17 61.3691C202.046 61.9134 201.953 62.2969 201.892 62.5195C201.842 62.7174 201.78 62.8906 201.706 63.0391C201.632 63.1751 201.471 63.2432 201.224 63.2432C201.137 63.2432 201.057 63.2308 200.982 63.2061C200.908 63.1813 200.834 63.1628 200.76 63.1504C200.215 63.0143 199.677 62.9463 199.146 62.9463C198.898 62.9463 198.62 62.9834 198.311 63.0576C198.014 63.1318 197.865 63.3421 197.865 63.6885C197.865 64.0596 197.989 64.443 198.236 64.8389C198.496 65.2347 198.799 65.6058 199.146 65.9521C199.492 66.2985 199.801 66.583 200.073 66.8057C200.951 67.486 201.663 68.0859 202.207 68.6055C202.764 69.125 203.172 69.7311 203.432 70.4238C203.704 71.1042 203.84 72.0381 203.84 73.2256V73.6523C203.84 75.1986 203.568 76.4727 203.023 77.4746C202.492 78.4642 201.756 79.2373 200.815 79.7939C199.875 80.3506 198.805 80.7402 197.605 80.9629C196.406 81.1855 195.144 81.2969 193.82 81.2969C193.066 81.2969 192.175 81.2598 191.148 81.1855C190.134 81.1237 189.281 80.9505 188.588 80.666C188.427 80.6042 188.297 80.5299 188.198 80.4434C188.112 80.3568 188.068 80.2145 188.068 80.0166C188.068 79.9548 188.081 79.8743 188.105 79.7754C188.229 79.1198 188.353 78.4704 188.477 77.8271C188.6 77.1839 188.718 76.5407 188.829 75.8975C188.879 75.5882 188.916 75.279 188.94 74.9697C188.978 74.6481 189.039 74.3389 189.126 74.042C189.163 73.9183 189.225 73.7699 189.312 73.5967C189.41 73.4235 189.54 73.3369 189.701 73.3369C189.8 73.3369 189.893 73.3493 189.979 73.374C190.078 73.3864 190.171 73.4049 190.258 73.4297C190.802 73.5534 191.334 73.6462 191.854 73.708C192.373 73.7699 192.911 73.8008 193.468 73.8008C193.752 73.8008 194.024 73.7637 194.284 73.6895C194.544 73.6152 194.674 73.3926 194.674 73.0215C194.674 72.6504 194.581 72.304 194.396 71.9824C194.235 71.6979 194.043 71.4258 193.82 71.166C193.61 70.8939 193.387 70.6403 193.152 70.4053C192.855 70.096 192.54 69.8115 192.206 69.5518C191.872 69.292 191.538 69.026 191.204 68.7539C190.153 67.9375 189.485 67.1149 189.2 66.2861C188.916 65.445 188.761 64.3688 188.736 63.0576V62.8906C188.736 61.0104 189.126 59.526 189.905 58.4375C190.685 57.3366 191.748 56.5511 193.097 56.0811C194.445 55.611 195.966 55.376 197.661 55.376Z" fill="#1B814C"/>
</svg>
