<svg width="64" height="76" viewBox="0 0 64 76" fill="none" xmlns="http://www.w3.org/2000/svg">
<path d="M63.1491 15.4704L48.6036 0.855001C48.3333 0.583639 48.0124 0.36846 47.6592 0.221756C47.3061 0.0750524 46.9276 -0.000301036 46.5455 9.03811e-07H17.4545C15.9115 9.03811e-07 14.4316 0.615933 13.3405 1.7123C12.2494 2.80867 11.6364 4.29566 11.6364 5.84615V11.6923H5.81818C4.2751 11.6923 2.79523 12.3082 1.70411 13.4046C0.612985 14.501 0 15.988 0 17.5385V70.1538C0 71.7043 0.612985 73.1913 1.70411 74.2877C2.79523 75.3841 4.2751 76 5.81818 76H46.5455C48.0885 76 49.5684 75.3841 50.6595 74.2877C51.7507 73.1913 52.3636 71.7043 52.3636 70.1538V64.3077H58.1818C59.7249 64.3077 61.2048 63.6918 62.2959 62.5954C63.387 61.499 64 60.012 64 58.4615V17.5385C64.0003 17.1545 63.9253 16.7742 63.7793 16.4194C63.6333 16.0645 63.4192 15.742 63.1491 15.4704ZM34.9091 61.3846H17.4545C16.683 61.3846 15.9431 61.0766 15.3975 60.5285C14.8519 59.9803 14.5455 59.2368 14.5455 58.4615C14.5455 57.6863 14.8519 56.9428 15.3975 56.3946C15.9431 55.8464 16.683 55.5385 17.4545 55.5385H34.9091C35.6806 55.5385 36.4206 55.8464 36.9661 56.3946C37.5117 56.9428 37.8182 57.6863 37.8182 58.4615C37.8182 59.2368 37.5117 59.9803 36.9661 60.5285C36.4206 61.0766 35.6806 61.3846 34.9091 61.3846ZM34.9091 49.6923H17.4545C16.683 49.6923 15.9431 49.3843 15.3975 48.8362C14.8519 48.288 14.5455 47.5445 14.5455 46.7692C14.5455 45.994 14.8519 45.2505 15.3975 44.7023C15.9431 44.1541 16.683 43.8462 17.4545 43.8462H34.9091C35.6806 43.8462 36.4206 44.1541 36.9661 44.7023C37.5117 45.2505 37.8182 45.994 37.8182 46.7692C37.8182 47.5445 37.5117 48.288 36.9661 48.8362C36.4206 49.3843 35.6806 49.6923 34.9091 49.6923ZM58.1818 58.4615H52.3636V29.2308C52.3639 28.8468 52.2889 28.4665 52.1429 28.1117C51.9969 27.7568 51.7828 27.4344 51.5127 27.1627L36.9673 12.5473C36.6969 12.2759 36.376 12.0608 36.0228 11.9141C35.6697 11.7674 35.2912 11.692 34.9091 11.6923H17.4545V5.84615H45.3418L58.1818 18.7479V58.4615Z" fill="#1B814C"/>
<path d="M58.1818 58.4615H52.3636V29.2308C52.3639 28.8468 52.2889 28.4665 52.1429 28.1117C51.9969 27.7568 51.7828 27.4344 51.5127 27.1627L36.9673 12.5473C36.6969 12.2759 36.376 12.0608 36.0228 11.9141C35.6697 11.7674 35.2912 11.692 34.9091 11.6923H17.4545V5.84615H45.3418L58.1818 18.7479V58.4615Z" fill="white"/>
<path d="M34.9091 49.6923H17.4545C16.683 49.6923 15.9431 49.3843 15.3975 48.8362C14.8519 48.288 14.5455 47.5445 14.5455 46.7692C14.5455 45.994 14.8519 45.2505 15.3975 44.7023C15.9431 44.1541 16.683 43.8462 17.4545 43.8462H34.9091C35.6806 43.8462 36.4206 44.1541 36.9661 44.7023C37.5117 45.2505 37.8182 45.994 37.8182 46.7692C37.8182 47.5445 37.5117 48.288 36.9661 48.8362C36.4206 49.3843 35.6806 49.6923 34.9091 49.6923Z" fill="white"/>
<path d="M34.9091 61.3846H17.4545C16.683 61.3846 15.9431 61.0766 15.3975 60.5285C14.8519 59.9803 14.5455 59.2368 14.5455 58.4615C14.5455 57.6863 14.8519 56.9428 15.3975 56.3946C15.9431 55.8464 16.683 55.5385 17.4545 55.5385H34.9091C35.6806 55.5385 36.4206 55.8464 36.9661 56.3946C37.5117 56.9428 37.8182 57.6863 37.8182 58.4615C37.8182 59.2368 37.5117 59.9803 36.9661 60.5285C36.4206 61.0766 35.6806 61.3846 34.9091 61.3846Z" fill="white"/>
</svg>
