<svg width="191" height="30" viewBox="0 0 191 30" fill="none" xmlns="http://www.w3.org/2000/svg">
<path d="M23.6809 6.69962L18.2264 1.315C18.125 1.21502 18.0046 1.13575 17.8722 1.0817C17.7398 1.02765 17.5978 0.999889 17.4545 1H6.54545C5.9668 1 5.41185 1.22692 5.00268 1.63085C4.59351 2.03477 4.36364 2.58261 4.36364 3.15385V5.30769H2.18182C1.60316 5.30769 1.04821 5.53462 0.63904 5.93854C0.229869 6.34246 0 6.8903 0 7.46154V26.8462C0 27.4174 0.229869 27.9652 0.63904 28.3692C1.04821 28.7731 1.60316 29 2.18182 29H17.4545C18.0332 29 18.5882 28.7731 18.9973 28.3692C19.4065 27.9652 19.6364 27.4174 19.6364 26.8462V24.6923H21.8182C22.3968 24.6923 22.9518 24.4654 23.361 24.0615C23.7701 23.6575 24 23.1097 24 22.5385V7.46154C24.0001 7.32007 23.972 7.17997 23.9172 7.04924C23.8625 6.91851 23.7822 6.7997 23.6809 6.69962ZM13.0909 23.6154H6.54545C6.25613 23.6154 5.97865 23.5019 5.77407 23.3C5.56948 23.098 5.45455 22.8241 5.45455 22.5385C5.45455 22.2528 5.56948 21.9789 5.77407 21.777C5.97865 21.575 6.25613 21.4615 6.54545 21.4615H13.0909C13.3802 21.4615 13.6577 21.575 13.8623 21.777C14.0669 21.9789 14.1818 22.2528 14.1818 22.5385C14.1818 22.8241 14.0669 23.098 13.8623 23.3C13.6577 23.5019 13.3802 23.6154 13.0909 23.6154ZM13.0909 19.3077H6.54545C6.25613 19.3077 5.97865 19.1942 5.77407 18.9923C5.56948 18.7903 5.45455 18.5164 5.45455 18.2308C5.45455 17.9452 5.56948 17.6712 5.77407 17.4693C5.97865 17.2673 6.25613 17.1538 6.54545 17.1538H13.0909C13.3802 17.1538 13.6577 17.2673 13.8623 17.4693C14.0669 17.6712 14.1818 17.9452 14.1818 18.2308C14.1818 18.5164 14.0669 18.7903 13.8623 18.9923C13.6577 19.1942 13.3802 19.3077 13.0909 19.3077ZM21.8182 22.5385H19.6364V11.7692C19.6365 11.6278 19.6084 11.4877 19.5536 11.3569C19.4989 11.2262 19.4185 11.1074 19.3173 11.0073L13.8627 5.62269C13.7613 5.52272 13.641 5.44344 13.5086 5.38939C13.3761 5.33534 13.2342 5.30758 13.0909 5.30769H6.54545V3.15385H17.0032L21.8182 7.90712V22.5385Z" fill="#1B814C"/>
<path d="M49.75 16.3281C49.8672 16.3281 49.957 16.3711 50.0195 16.457C50.082 16.543 50.1367 16.6289 50.1836 16.7148C50.2305 16.8086 50.3398 17.0391 50.5117 17.4062C50.6914 17.7656 50.8789 18.1641 51.0742 18.6016C51.2773 19.0312 51.4531 19.4141 51.6016 19.75C51.75 20.0859 51.8242 20.2773 51.8242 20.3242C51.8242 20.3789 51.8008 20.4336 51.7539 20.4883C51.7148 20.5352 51.6758 20.5742 51.6367 20.6055C51.207 20.9492 50.6875 21.2383 50.0781 21.4727C49.4688 21.6992 48.8398 21.8711 48.1914 21.9883C47.5508 22.1055 46.957 22.1641 46.4102 22.1641C44.6758 22.1641 43.1719 21.832 41.8984 21.168C40.625 20.4961 39.6406 19.5352 38.9453 18.2852C38.25 17.0273 37.9023 15.5234 37.9023 13.7734C37.9023 12.1406 38.2031 10.7227 38.8047 9.51953C39.4062 8.31641 40.2852 7.38672 41.4414 6.73047C42.6055 6.06641 44.0156 5.73438 45.6719 5.73438C46.1953 5.73438 46.7812 5.78516 47.4297 5.88672C48.0859 5.98828 48.7266 6.13672 49.3516 6.33203C49.9844 6.52734 50.5195 6.76953 50.957 7.05859C51.1133 7.16016 51.1914 7.28125 51.1914 7.42188C51.1914 7.45313 51.1445 7.59375 51.0508 7.84375C50.957 8.08594 50.8398 8.38281 50.6992 8.73438C50.5586 9.08594 50.4141 9.44531 50.2656 9.8125C50.125 10.1719 49.9961 10.4883 49.8789 10.7617C49.7695 11.0352 49.6953 11.2109 49.6562 11.2891C49.6172 11.375 49.5703 11.457 49.5156 11.5352C49.4609 11.6055 49.3789 11.6406 49.2695 11.6406C49.1836 11.6406 49.0117 11.5781 48.7539 11.4531C48.5039 11.3281 48.2031 11.2031 47.8516 11.0781C47.5078 10.9531 47.1523 10.8906 46.7852 10.8906C46.1992 10.8906 45.6406 10.9961 45.1094 11.207C44.5781 11.418 44.1445 11.7383 43.8086 12.168C43.4805 12.5898 43.3164 13.1289 43.3164 13.7852C43.3164 14.9492 43.6602 15.7734 44.3477 16.2578C45.043 16.7422 45.9258 16.9844 46.9961 16.9844C47.3945 16.9844 47.793 16.9453 48.1914 16.8672C48.5977 16.7812 48.9805 16.6484 49.3398 16.4688C49.418 16.4297 49.4844 16.3984 49.5391 16.375C49.5938 16.3438 49.6641 16.3281 49.75 16.3281ZM53.5938 13.9727C53.5938 12.832 53.8086 11.7656 54.2383 10.7734C54.6758 9.77344 55.2773 8.89453 56.043 8.13672C56.8086 7.37891 57.6914 6.78516 58.6914 6.35547C59.6992 5.92578 60.7695 5.71094 61.9023 5.71094C63.043 5.71094 64.1211 5.92969 65.1367 6.36719C66.1523 6.79688 67.0469 7.39453 67.8203 8.16016C68.6016 8.91797 69.2148 9.80078 69.6602 10.8086C70.1055 11.8164 70.3281 12.8945 70.3281 14.043C70.3281 15.1992 70.1094 16.2734 69.6719 17.2656C69.2344 18.25 68.6289 19.1094 67.8555 19.8438C67.082 20.5781 66.1875 21.1484 65.1719 21.5547C64.1641 21.9609 63.0898 22.1641 61.9492 22.1641C60.8008 22.1641 59.7188 21.957 58.7031 21.543C57.6953 21.1289 56.8086 20.5508 56.043 19.8086C55.2773 19.0664 54.6758 18.1992 54.2383 17.207C53.8086 16.2148 53.5938 15.1367 53.5938 13.9727ZM58.9961 13.8789C58.9961 14.7852 59.293 15.5312 59.8867 16.1172C60.4883 16.6953 61.2383 16.9844 62.1367 16.9844C63.0195 16.9844 63.7031 16.6914 64.1875 16.1055C64.6797 15.5195 64.9258 14.8086 64.9258 13.9727C64.9258 13.0977 64.6602 12.3672 64.1289 11.7812C63.5977 11.1875 62.8828 10.8906 61.9844 10.8906C61.1094 10.8906 60.3906 11.1719 59.8281 11.7344C59.2734 12.2891 58.9961 13.0039 58.9961 13.8789ZM72.2266 13.9727C72.2266 12.832 72.4414 11.7656 72.8711 10.7734C73.3086 9.77344 73.9102 8.89453 74.6758 8.13672C75.4414 7.37891 76.3242 6.78516 77.3242 6.35547C78.332 5.92578 79.4023 5.71094 80.5352 5.71094C81.6758 5.71094 82.7539 5.92969 83.7695 6.36719C84.7852 6.79688 85.6797 7.39453 86.4531 8.16016C87.2344 8.91797 87.8477 9.80078 88.293 10.8086C88.7383 11.8164 88.9609 12.8945 88.9609 14.043C88.9609 15.1992 88.7422 16.2734 88.3047 17.2656C87.8672 18.25 87.2617 19.1094 86.4883 19.8438C85.7148 20.5781 84.8203 21.1484 83.8047 21.5547C82.7969 21.9609 81.7227 22.1641 80.582 22.1641C79.4336 22.1641 78.3516 21.957 77.3359 21.543C76.3281 21.1289 75.4414 20.5508 74.6758 19.8086C73.9102 19.0664 73.3086 18.1992 72.8711 17.207C72.4414 16.2148 72.2266 15.1367 72.2266 13.9727ZM77.6289 13.8789C77.6289 14.7852 77.9258 15.5312 78.5195 16.1172C79.1211 16.6953 79.8711 16.9844 80.7695 16.9844C81.6523 16.9844 82.3359 16.6914 82.8203 16.1055C83.3125 15.5195 83.5586 14.8086 83.5586 13.9727C83.5586 13.0977 83.293 12.3672 82.7617 11.7812C82.2305 11.1875 81.5156 10.8906 80.6172 10.8906C79.7422 10.8906 79.0234 11.1719 78.4609 11.7344C77.9062 12.2891 77.6289 13.0039 77.6289 13.8789ZM91.1641 6.39062C91.1641 6.0625 91.3203 5.89844 91.6328 5.89844H96.0273C96.3242 5.89844 96.4844 6.05859 96.5078 6.37891C96.5312 6.73828 96.5352 7.10547 96.5195 7.48047C96.5117 7.85547 96.5078 8.22656 96.5078 8.59375V16.6797C96.5078 16.7812 96.5586 16.832 96.6602 16.832H102.402C102.691 16.832 102.848 16.9883 102.871 17.3008C102.895 17.5664 102.906 17.8359 102.906 18.1094C102.914 18.375 102.922 18.6445 102.93 18.918C102.945 19.3477 102.965 19.7812 102.988 20.2188C103.02 20.6484 103.035 21.0781 103.035 21.5078C103.035 21.8359 102.879 22 102.566 22H91.6094C91.2969 22 91.1406 21.8359 91.1406 21.5078C91.1406 21.0781 91.1523 20.6523 91.1758 20.2305C91.207 19.8008 91.2266 19.3711 91.2344 18.9414C91.2656 18.043 91.2891 17.1484 91.3047 16.2578C91.3203 15.3672 91.3281 14.4727 91.3281 13.5742C91.3281 11.957 91.3047 10.3398 91.2578 8.72266C91.25 8.33203 91.2305 7.94141 91.1992 7.55078C91.1758 7.16016 91.1641 6.77344 91.1641 6.39062ZM111.004 6.39062C111.004 6.0625 111.16 5.89844 111.473 5.89844H122.805C123.117 5.89844 123.273 6.04297 123.273 6.33203C123.273 7.03516 123.254 7.74219 123.215 8.45312C123.184 9.16406 123.156 9.87109 123.133 10.5742C123.125 10.8945 122.969 11.0547 122.664 11.0547H116.488C116.402 11.0547 116.359 11.0977 116.359 11.1836V12.1914C116.359 12.3164 116.422 12.3789 116.547 12.3789H121.645C121.957 12.3789 122.113 12.5391 122.113 12.8594C122.113 13.4844 122.117 14.1133 122.125 14.7461C122.133 15.3789 122.137 16.0078 122.137 16.6328C122.137 16.9453 121.98 17.1016 121.668 17.1016H116.488C116.402 17.1016 116.359 17.1445 116.359 17.2305C116.359 17.9414 116.359 18.6562 116.359 19.375C116.359 20.0859 116.352 20.8008 116.336 21.5195C116.32 21.8398 116.16 22 115.855 22H111.438C111.125 22 110.969 21.8359 110.969 21.5078C110.969 21.0781 110.98 20.6523 111.004 20.2305C111.035 19.8008 111.059 19.3711 111.074 18.9414C111.105 18.043 111.129 17.1484 111.145 16.2578C111.16 15.3672 111.168 14.4727 111.168 13.5742C111.168 12.7617 111.156 11.9492 111.133 11.1367C111.117 10.3242 111.098 9.51562 111.074 8.71094C111.066 8.32031 111.051 7.93359 111.027 7.55078C111.012 7.16016 111.004 6.77344 111.004 6.39062ZM124.844 13.9727C124.844 12.832 125.059 11.7656 125.488 10.7734C125.926 9.77344 126.527 8.89453 127.293 8.13672C128.059 7.37891 128.941 6.78516 129.941 6.35547C130.949 5.92578 132.02 5.71094 133.152 5.71094C134.293 5.71094 135.371 5.92969 136.387 6.36719C137.402 6.79688 138.297 7.39453 139.07 8.16016C139.852 8.91797 140.465 9.80078 140.91 10.8086C141.355 11.8164 141.578 12.8945 141.578 14.043C141.578 15.1992 141.359 16.2734 140.922 17.2656C140.484 18.25 139.879 19.1094 139.105 19.8438C138.332 20.5781 137.438 21.1484 136.422 21.5547C135.414 21.9609 134.34 22.1641 133.199 22.1641C132.051 22.1641 130.969 21.957 129.953 21.543C128.945 21.1289 128.059 20.5508 127.293 19.8086C126.527 19.0664 125.926 18.1992 125.488 17.207C125.059 16.2148 124.844 15.1367 124.844 13.9727ZM130.246 13.8789C130.246 14.7852 130.543 15.5312 131.137 16.1172C131.738 16.6953 132.488 16.9844 133.387 16.9844C134.27 16.9844 134.953 16.6914 135.438 16.1055C135.93 15.5195 136.176 14.8086 136.176 13.9727C136.176 13.0977 135.91 12.3672 135.379 11.7812C134.848 11.1875 134.133 10.8906 133.234 10.8906C132.359 10.8906 131.641 11.1719 131.078 11.7344C130.523 12.2891 130.246 13.0039 130.246 13.8789ZM149.992 5.89844C151 5.89844 151.949 5.99609 152.84 6.19141C153.738 6.37891 154.531 6.69922 155.219 7.15234C155.914 7.59766 156.457 8.20312 156.848 8.96875C157.246 9.73438 157.445 10.6914 157.445 11.8398V11.9336C157.438 12.8711 157.27 13.7617 156.941 14.6055C156.613 15.4414 156.066 16.1562 155.301 16.75C155.152 16.8672 155 16.9688 154.844 17.0547C154.688 17.1406 154.531 17.2344 154.375 17.3359C154.359 17.3438 154.336 17.3633 154.305 17.3945L154.293 17.4297C154.293 17.4688 154.395 17.6094 154.598 17.8516C154.809 18.0938 155.07 18.3867 155.383 18.7305C155.703 19.0664 156.027 19.4102 156.355 19.7617C156.684 20.1055 156.973 20.4102 157.223 20.6758C157.48 20.9336 157.648 21.1055 157.727 21.1914C157.789 21.2617 157.859 21.3398 157.938 21.4258C158.016 21.5117 158.055 21.6094 158.055 21.7188C158.055 21.8594 157.969 21.9414 157.797 21.9648C157.625 21.9883 157.492 22 157.398 22H152.465C152.324 22 152.195 21.9336 152.078 21.8008C152 21.7148 151.863 21.5312 151.668 21.25C151.48 20.9609 151.262 20.6328 151.012 20.2656C150.77 19.8984 150.531 19.5391 150.297 19.1875C150.062 18.8359 149.859 18.5469 149.688 18.3203C149.516 18.0859 149.41 17.9688 149.371 17.9688C149.254 17.9688 149.188 18.0156 149.172 18.1094C149.156 18.25 149.148 18.3984 149.148 18.5547C149.148 18.7031 149.148 18.8477 149.148 18.9883C149.148 19.4102 149.152 19.8359 149.16 20.2656C149.176 20.6875 149.164 21.1055 149.125 21.5195C149.109 21.6836 149.07 21.8047 149.008 21.8828C148.945 21.9609 148.824 22 148.645 22H144.227C143.914 22 143.758 21.8359 143.758 21.5078C143.758 21.0859 143.773 20.6602 143.805 20.2305C143.836 19.8008 143.859 19.375 143.875 18.9531C143.914 18.0703 143.941 17.1875 143.957 16.3047C143.98 15.4141 143.992 14.5234 143.992 13.6328C143.992 12.8203 143.984 12.0039 143.969 11.1836C143.953 10.3633 143.93 9.54688 143.898 8.73438C143.891 8.34375 143.871 7.95312 143.84 7.5625C143.816 7.16406 143.805 6.77344 143.805 6.39062C143.805 6.0625 143.961 5.89844 144.273 5.89844H149.992ZM150.543 13.9141C150.973 13.9141 151.293 13.8164 151.504 13.6211C151.715 13.418 151.855 13.1562 151.926 12.8359C151.996 12.5156 152.031 12.1797 152.031 11.8281C152.031 11.3281 151.91 10.9414 151.668 10.668C151.434 10.3945 151.059 10.2578 150.543 10.2578H149.172C149.172 10.8672 149.172 11.4766 149.172 12.0859C149.18 12.6953 149.184 13.3047 149.184 13.9141H150.543ZM160.551 22C160.238 22 160.082 21.832 160.082 21.4961C160.082 21.082 160.102 20.668 160.141 20.2539C160.188 19.832 160.219 19.418 160.234 19.0117C160.273 18.1055 160.305 17.1953 160.328 16.2812C160.352 15.3672 160.363 14.457 160.363 13.5508C160.363 12.3945 160.332 11.2422 160.27 10.0938C160.207 8.94531 160.164 7.79688 160.141 6.64844V6.40234C160.141 6.32422 160.152 6.22266 160.176 6.09766C160.199 5.97266 160.266 5.91016 160.375 5.91016C160.477 5.91016 160.582 5.96094 160.691 6.0625C160.809 6.16406 160.898 6.24609 160.961 6.30859C161.875 7.21484 162.762 8.15234 163.621 9.12109C164.48 10.082 165.336 11.0469 166.188 12.0156C166.594 12.4688 166.996 12.9336 167.395 13.4102C167.801 13.8867 168.219 14.3398 168.648 14.7695C168.664 14.7852 168.688 14.8008 168.719 14.8164H168.848C168.848 14.8164 169.02 14.6367 169.363 14.2773C169.715 13.9102 170.168 13.4336 170.723 12.8477C171.277 12.2617 171.879 11.6289 172.527 10.9492C173.176 10.2695 173.809 9.60547 174.426 8.95703C175.051 8.30859 175.598 7.74219 176.066 7.25781C176.543 6.77344 176.879 6.4375 177.074 6.25C177.152 6.17187 177.23 6.10156 177.309 6.03906C177.387 5.97656 177.477 5.92969 177.578 5.89844C177.594 5.89844 177.605 5.89844 177.613 5.89844C177.629 5.89062 177.641 5.88672 177.648 5.88672C177.781 5.88672 177.852 5.96094 177.859 6.10938C177.875 6.25781 177.883 6.37891 177.883 6.47266V6.61328C177.859 7.67578 177.816 8.73828 177.754 9.80078C177.699 10.8633 177.672 11.9297 177.672 13C177.672 13.9531 177.68 14.9102 177.695 15.8711C177.719 16.832 177.754 17.7891 177.801 18.7422C177.824 19.2109 177.855 19.6836 177.895 20.1602C177.941 20.6289 177.965 21.0977 177.965 21.5664C177.965 21.8555 177.812 22 177.508 22H173.066C172.746 22 172.582 21.8438 172.574 21.5312C172.574 21.4609 172.57 21.3164 172.562 21.0977C172.562 20.8789 172.559 20.6406 172.551 20.3828C172.551 20.1172 172.547 19.8828 172.539 19.6797C172.531 19.4766 172.52 19.3594 172.504 19.3281L172.457 19.3047C172.426 19.3047 172.312 19.4062 172.117 19.6094C171.922 19.8047 171.68 20.0547 171.391 20.3594C171.109 20.6641 170.82 20.9766 170.523 21.2969C170.234 21.6172 169.977 21.8984 169.75 22.1406C169.523 22.3828 169.375 22.5391 169.305 22.6094C169.258 22.6562 169.207 22.6992 169.152 22.7383C169.098 22.7773 169.035 22.7969 168.965 22.7969C168.895 22.7969 168.832 22.7773 168.777 22.7383C168.73 22.707 168.68 22.668 168.625 22.6211C168.547 22.5508 168.391 22.4023 168.156 22.1758C167.93 21.9492 167.664 21.6875 167.359 21.3906C167.062 21.0859 166.77 20.793 166.48 20.5117C166.191 20.2227 165.941 19.9844 165.73 19.7969C165.527 19.6094 165.41 19.5156 165.379 19.5156C165.355 19.5156 165.34 19.543 165.332 19.5977C165.324 19.6445 165.32 19.6758 165.32 19.6914L165.273 21.5312C165.266 21.8438 165.102 22 164.781 22H160.551ZM185.957 5.81641C186.105 5.81641 186.359 5.82812 186.719 5.85156C187.086 5.86719 187.473 5.90625 187.879 5.96875C188.293 6.02344 188.645 6.11328 188.934 6.23828C189.23 6.35547 189.379 6.51563 189.379 6.71875C189.379 6.82031 189.348 7.03516 189.285 7.36328C189.223 7.69141 189.145 8.05859 189.051 8.46484C188.965 8.87109 188.883 9.25 188.805 9.60156C188.727 9.94531 188.668 10.1875 188.629 10.3281C188.598 10.4531 188.559 10.5625 188.512 10.6562C188.465 10.7422 188.363 10.7852 188.207 10.7852C188.152 10.7852 188.102 10.7773 188.055 10.7617C188.008 10.7461 187.961 10.7344 187.914 10.7266C187.57 10.6406 187.23 10.5977 186.895 10.5977C186.738 10.5977 186.562 10.6211 186.367 10.668C186.18 10.7148 186.086 10.8477 186.086 11.0664C186.086 11.3008 186.164 11.543 186.32 11.793C186.484 12.043 186.676 12.2773 186.895 12.4961C187.113 12.7148 187.309 12.8945 187.48 13.0352C188.035 13.4648 188.484 13.8438 188.828 14.1719C189.18 14.5 189.438 14.8828 189.602 15.3203C189.773 15.75 189.859 16.3398 189.859 17.0898V17.3594C189.859 18.3359 189.688 19.1406 189.344 19.7734C189.008 20.3984 188.543 20.8867 187.949 21.2383C187.355 21.5898 186.68 21.8359 185.922 21.9766C185.164 22.1172 184.367 22.1875 183.531 22.1875C183.055 22.1875 182.492 22.1641 181.844 22.1172C181.203 22.0781 180.664 21.9688 180.227 21.7891C180.125 21.75 180.043 21.7031 179.98 21.6484C179.926 21.5938 179.898 21.5039 179.898 21.3789C179.898 21.3398 179.906 21.2891 179.922 21.2266C180 20.8125 180.078 20.4023 180.156 19.9961C180.234 19.5898 180.309 19.1836 180.379 18.7773C180.41 18.582 180.434 18.3867 180.449 18.1914C180.473 17.9883 180.512 17.793 180.566 17.6055C180.59 17.5273 180.629 17.4336 180.684 17.3242C180.746 17.2148 180.828 17.1602 180.93 17.1602C180.992 17.1602 181.051 17.168 181.105 17.1836C181.168 17.1914 181.227 17.2031 181.281 17.2188C181.625 17.2969 181.961 17.3555 182.289 17.3945C182.617 17.4336 182.957 17.4531 183.309 17.4531C183.488 17.4531 183.66 17.4297 183.824 17.3828C183.988 17.3359 184.07 17.1953 184.07 16.9609C184.07 16.7266 184.012 16.5078 183.895 16.3047C183.793 16.125 183.672 15.9531 183.531 15.7891C183.398 15.6172 183.258 15.457 183.109 15.3086C182.922 15.1133 182.723 14.9336 182.512 14.7695C182.301 14.6055 182.09 14.4375 181.879 14.2656C181.215 13.75 180.793 13.2305 180.613 12.707C180.434 12.1758 180.336 11.4961 180.32 10.668V10.5625C180.32 9.375 180.566 8.4375 181.059 7.75C181.551 7.05469 182.223 6.55859 183.074 6.26172C183.926 5.96484 184.887 5.81641 185.957 5.81641Z" fill="#1B814C"/>
</svg>
