<svg width="56" height="56" viewBox="0 0 56 56" fill="none" xmlns="http://www.w3.org/2000/svg">
<circle cx="28" cy="28" r="27.5" fill="white" stroke="#C0C0C0"/>
<path d="M30.5015 33.625V37.375C30.5015 37.5417 30.439 37.6875 30.314 37.8125C30.189 37.9375 30.0432 38 29.8765 38H26.1265C25.9598 38 25.814 37.9375 25.689 37.8125C25.564 37.6875 25.5015 37.5417 25.5015 37.375V33.625C25.5015 33.4583 25.564 33.3125 25.689 33.1875C25.814 33.0625 25.9598 33 26.1265 33H29.8765C30.0432 33 30.189 33.0625 30.314 33.1875C30.439 33.3125 30.5015 33.4583 30.5015 33.625ZM35.439 24.25C35.439 24.8125 35.3583 25.3385 35.1968 25.8281C35.0353 26.3177 34.8531 26.7161 34.6499 27.0234C34.4468 27.3307 34.1603 27.6406 33.7906 27.9531C33.4208 28.2656 33.1213 28.4922 32.8921 28.6328C32.6629 28.7734 32.3452 28.9583 31.939 29.1875C31.5119 29.4271 31.1551 29.7656 30.8687 30.2031C30.5822 30.6406 30.439 30.9896 30.439 31.25C30.439 31.4271 30.3765 31.5964 30.2515 31.7578C30.1265 31.9193 29.9807 32 29.814 32H26.064C25.9077 32 25.7749 31.9036 25.6656 31.7109C25.5562 31.5182 25.5015 31.3229 25.5015 31.125V30.4219C25.5015 29.5573 25.84 28.7422 26.5171 27.9766C27.1942 27.2109 27.939 26.6458 28.7515 26.2812C29.3661 26 29.8036 25.7083 30.064 25.4062C30.3244 25.1042 30.4546 24.7083 30.4546 24.2188C30.4546 23.7812 30.2124 23.3958 29.7281 23.0625C29.2437 22.7292 28.6838 22.5625 28.0484 22.5625C27.3713 22.5625 26.8088 22.7135 26.3609 23.0156C25.9963 23.276 25.439 23.875 24.689 24.8125C24.5536 24.9792 24.3921 25.0625 24.2046 25.0625C24.0796 25.0625 23.9494 25.0208 23.814 24.9375L21.2515 22.9844C21.1161 22.8802 21.0353 22.75 21.0093 22.5938C20.9833 22.4375 21.0119 22.2917 21.0952 22.1562C22.7619 19.3854 25.1786 18 28.3452 18C29.1786 18 30.0171 18.1615 30.8609 18.4844C31.7046 18.8073 32.465 19.2396 33.1421 19.7812C33.8192 20.3229 34.3713 20.987 34.7984 21.7734C35.2254 22.5599 35.439 23.3854 35.439 24.25Z" fill="#C0C0C0"/>
</svg>
